<svg width="24" height="24" viewBox="0 0 24 24" fill="none" xmlns="http://www.w3.org/2000/svg">
<g id="Frame 13244">
<path id="Subtract" fill-rule="evenodd" clip-rule="evenodd" d="M6.10113 6.04372L4.07106 9.44807C3.95866 9.63656 3.98231 9.87632 4.12938 10.0392L11.2294 17.9034C11.4272 18.1225 11.7708 18.1234 11.9698 17.9055L19.1495 10.042C19.299 9.87817 19.3228 9.63536 19.2078 9.44565L17.1434 6.04059C17.0528 5.89111 16.8907 5.7998 16.7159 5.7998H6.53058C6.35446 5.7998 6.19133 5.89246 6.10113 6.04372ZM5.24225 5.53155L3.21218 8.9359C2.87497 9.50138 2.94593 10.2207 3.38714 10.7093L10.4872 18.5735C11.0806 19.2308 12.1112 19.2337 12.7083 18.5797L19.8879 10.7163C20.3367 10.2248 20.4079 9.49635 20.0629 8.92723L17.9986 5.52217C17.7267 5.07371 17.2403 4.7998 16.7159 4.7998H6.53058C6.00223 4.7998 5.51285 5.07777 5.24225 5.53155Z" fill="white"/>
</g>
</svg>
