<svg width="18" height="18" viewBox="0 0 18 18" fill="none" xmlns="http://www.w3.org/2000/svg">
<g id="&#231;&#148;&#181;&#232;&#175;&#157;" clip-path="url(#clip0_1346_4494)">
<g id="Ellipse 627">
<circle cx="9" cy="9" r="9" fill="white" fill-opacity="0.05"/>
<circle cx="9" cy="9" r="8.75" stroke="#64D2FF" stroke-opacity="0.5" stroke-width="0.5"/>
</g>
<path id="Rectangle 5957" d="M6.05572 5.53182C6.32212 5.05228 6.93274 4.88877 7.40312 5.171L8.29593 5.70671C8.78257 5.9987 8.9532 6.62199 8.68316 7.12115L8.60669 7.2625C8.54951 7.36819 8.53636 7.49217 8.57008 7.60751C8.82493 8.47915 9.5065 9.16075 10.3781 9.41561C10.4934 9.44933 10.6174 9.43617 10.7231 9.379L10.6227 9.19347L10.7231 9.379L10.8645 9.30252C11.3636 9.03247 11.9869 9.20312 12.2789 9.68977L12.8145 10.5826C13.0968 11.053 12.9333 11.6636 12.4537 11.9301L12.1924 12.0752L11.5225 12.3284C11.3477 12.3945 11.1898 12.4369 11.037 12.4314C10.523 12.4131 9.21139 12.1802 7.50849 10.4772C5.8056 8.77428 5.5727 7.46265 5.55435 6.94863C5.54889 6.79581 5.59133 6.63791 5.65739 6.46309L5.91053 5.79316L6.05572 5.53182Z" stroke="#64D2FF" stroke-width="0.421874"/>
</g>
<defs>
<clipPath id="clip0_1346_4494">
<rect width="18" height="18" fill="white"/>
</clipPath>
</defs>
</svg>
