<svg width="18" height="18" viewBox="0 0 18 18" fill="none" xmlns="http://www.w3.org/2000/svg">
<g id="&#229;&#190;&#174;&#228;&#191;&#161;" clip-path="url(#clip0_1346_7530)">
<g id="Ellipse 627">
<circle cx="9" cy="9" r="9" fill="white" fill-opacity="0.05"/>
<circle cx="9" cy="9" r="8.75" stroke="#30D158" stroke-opacity="0.5" stroke-width="0.5"/>
</g>
<path id="Union" fill-rule="evenodd" clip-rule="evenodd" d="M5.97139 9.33804L5.82299 10.1414L6.78942 9.87258L6.92125 9.9248C7.05436 9.97753 7.19297 10.0221 7.33623 10.0576C7.32057 9.95197 7.3125 9.84436 7.3125 9.73513C7.3125 8.33713 8.63466 7.20383 10.2656 7.20383C11.8966 7.20383 13.2188 8.33713 13.2188 9.73513C13.2188 10.3243 12.9839 10.8664 12.5902 11.2965L12.7365 12.1471C12.7698 12.3409 12.5884 12.5025 12.3997 12.4472L11.2711 12.1159C10.9572 12.2133 10.6187 12.2664 10.2656 12.2664C8.95199 12.2664 7.83868 11.5312 7.45519 10.5147C7.21501 10.4703 6.98425 10.4035 6.76589 10.317L5.69535 10.6149C5.50608 10.6675 5.32706 10.5037 5.36275 10.3105L5.51843 9.46769C5.05708 8.96262 4.78125 8.32214 4.78125 7.6253C4.78125 5.9943 6.29229 4.67212 8.15625 4.67212C9.95089 4.67212 11.4184 5.89779 11.525 7.44466C11.3841 7.38762 11.2371 7.33985 11.085 7.30228C10.9016 6.09464 9.70558 5.094 8.15625 5.094C6.47061 5.094 5.20312 6.27845 5.20312 7.6253C5.20312 8.20665 5.43239 8.74796 5.82991 9.18316L5.97139 9.33804ZM12.279 11.0116L12.1393 11.1642L12.1744 11.368L12.2783 11.9719L11.3899 11.7111L11.2677 11.6753L11.146 11.713C10.8728 11.7978 10.5763 11.8445 10.2656 11.8445C8.80431 11.8445 7.73438 10.8415 7.73438 9.73513C7.73438 8.62879 8.80431 7.62571 10.2656 7.62571C11.7269 7.62571 12.7969 8.62879 12.7969 9.73513C12.7969 10.2077 12.6094 10.6507 12.279 11.0116Z" fill="#30D158"/>
</g>
<defs>
<clipPath id="clip0_1346_7530">
<rect width="18" height="18" fill="white"/>
</clipPath>
</defs>
</svg>
