<svg width="23" height="23" viewBox="0 0 23 23" fill="none" xmlns="http://www.w3.org/2000/svg">
<g id="&#229;&#136;&#151;&#232;&#161;&#168;&#229;&#177;&#149;&#231;&#164;&#186;">
<path id="Union" fill-rule="evenodd" clip-rule="evenodd" d="M4.7145 9.57129V4.71415H9.57164V9.57129H4.7145ZM3.57164 4.52367C3.57164 3.99768 3.99803 3.57129 4.52402 3.57129H9.76211C10.2881 3.57129 10.7145 3.99768 10.7145 4.52367V9.76176C10.7145 10.2877 10.2881 10.7141 9.76211 10.7141H4.52402C3.99803 10.7141 3.57164 10.2878 3.57164 9.76177V4.52367ZM4.71439 18.1429V13.2857H9.57153V18.1429H4.71439ZM3.57153 13.0952C3.57153 12.5693 3.99793 12.1429 4.52391 12.1429H9.76201C10.288 12.1429 10.7144 12.5693 10.7144 13.0952V18.3333C10.7144 18.8593 10.288 19.2857 9.76201 19.2857H4.52391C3.99793 19.2857 3.57153 18.8593 3.57153 18.3333V13.0952ZM13.2858 4.71429V9.57143H18.143V4.71429H13.2858ZM13.0953 3.57143C12.5694 3.57143 12.143 3.99782 12.143 4.52381V9.7619C12.143 10.2879 12.5694 10.7143 13.0953 10.7143H18.3334C18.8594 10.7143 19.2858 10.2879 19.2858 9.7619V4.52381C19.2858 3.99782 18.8594 3.57143 18.3334 3.57143H13.0953ZM13.2858 18.1429V13.2857H18.143V18.1429H13.2858ZM12.143 13.0952C12.143 12.5693 12.5694 12.1429 13.0953 12.1429H18.3334C18.8594 12.1429 19.2858 12.5693 19.2858 13.0952V18.3333C19.2858 18.8593 18.8594 19.2857 18.3334 19.2857H13.0953C12.5694 19.2857 12.143 18.8593 12.143 18.3333V13.0952Z" fill="#64D2FF"/>
</g>
</svg>
