<svg width="23" height="23" viewBox="0 0 23 23" fill="none" xmlns="http://www.w3.org/2000/svg">
<g id="&#229;&#164;&#154;&#233;&#128;&#137;">
<path id="Vector" d="M18.8134 9.4662C19.0179 8.85205 19.0888 8.20138 19.0214 7.55763C18.9541 6.91389 18.75 6.29197 18.4228 5.7335C17.9378 4.88877 17.197 4.21997 16.3072 3.8236C15.4175 3.42723 14.4248 3.32379 13.4724 3.52819C13.0428 3.04408 12.5148 2.65731 11.9236 2.39378C11.3325 2.13024 10.6919 1.99602 10.0447 2.00009C9.07097 1.99774 8.12166 2.30467 7.33362 2.87663C6.54557 3.44859 5.95953 4.25603 5.65997 5.18253C5.02565 5.31238 4.42638 5.57623 3.90228 5.95644C3.37818 6.33664 2.94135 6.82441 2.62103 7.38711C2.13216 8.22952 1.92348 9.20537 2.02509 10.1741C2.1267 11.1427 2.53334 12.054 3.18638 12.7766C2.98191 13.3908 2.91098 14.0415 2.97833 14.6852C3.04569 15.3289 3.24978 15.9508 3.57695 16.5093C4.062 17.354 4.80283 18.0228 5.69259 18.4191C6.58233 18.8155 7.57501 18.919 8.52738 18.7146C8.95695 19.1987 9.48499 19.5855 10.0761 19.8491C10.6673 20.1126 11.3079 20.2468 11.9551 20.2427C12.9293 20.2453 13.8791 19.9382 14.6674 19.3659C15.4558 18.7936 16.0419 17.9856 16.3412 17.0585C16.9755 16.9287 17.5748 16.6648 18.0989 16.2846C18.623 15.9044 19.0598 15.4166 19.3802 14.8539C19.8684 14.0116 20.0766 13.036 19.9748 12.0677C19.8729 11.0994 19.4662 10.1885 18.8134 9.4662ZM11.9565 19.0502C11.1568 19.0513 10.3822 18.7712 9.76812 18.259C9.79581 18.2439 9.84438 18.2172 9.87603 18.1979L13.5084 16.0997C13.5995 16.0478 13.6752 15.9726 13.7277 15.8818C13.7802 15.7909 13.8075 15.6878 13.8069 15.5829V10.462L15.3422 11.3485C15.3502 11.3526 15.3571 11.3585 15.3624 11.3658C15.3676 11.3732 15.3709 11.3817 15.372 11.3906V15.6315C15.3709 16.5373 15.0107 17.4057 14.3706 18.0464C13.7304 18.6873 12.8623 19.0482 11.9565 19.0502ZM4.61127 15.9131C4.2107 15.2209 4.06633 14.41 4.20344 13.6221C4.23041 13.6383 4.27752 13.6671 4.31133 13.6865L7.94366 15.7846C8.03419 15.8376 8.13717 15.8655 8.24202 15.8655C8.34682 15.8655 8.4498 15.8376 8.54033 15.7846L12.975 13.224V14.9971C12.9755 15.0061 12.9738 15.0152 12.97 15.0234C12.9661 15.0316 12.9603 15.0387 12.9531 15.0442L9.28118 17.1642C8.49578 17.6166 7.56297 17.7389 6.6875 17.5043C5.81201 17.2697 5.06533 16.6975 4.61127 15.9131ZM3.65571 7.98337C4.05454 7.29033 4.68448 6.75974 5.4352 6.48441C5.4352 6.51569 5.4334 6.57111 5.4334 6.60955V10.8058C5.43276 10.9106 5.46005 11.0137 5.51245 11.1045C5.56485 11.1953 5.64047 11.2704 5.73154 11.3223L10.1662 13.8826L8.63096 14.769C8.62338 14.774 8.61467 14.777 8.60564 14.7779C8.59661 14.7787 8.58749 14.7773 8.57915 14.7737L4.90689 12.6519C4.12286 12.1978 3.55086 11.4514 3.31631 10.5762C3.08177 9.70112 3.20382 8.76868 3.65571 7.98337ZM16.2697 10.9187L11.8349 8.35813L13.3703 7.47198C13.3778 7.46701 13.3865 7.46395 13.3956 7.46313C13.4046 7.46231 13.4137 7.46377 13.422 7.46733L17.0943 9.58738C17.6569 9.91237 18.1153 10.3909 18.4158 10.9669C18.7162 11.543 18.8463 12.1927 18.7909 12.8401C18.7355 13.4874 18.4968 14.1056 18.1028 14.6222C17.7087 15.1388 17.1757 15.5324 16.566 15.757C16.566 15.7253 16.566 15.6699 16.566 15.6315V11.4352C16.5669 11.3306 16.5399 11.2276 16.4878 11.1368C16.4357 11.0461 16.3604 10.9708 16.2697 10.9187ZM17.7977 8.61886C17.7708 8.60231 17.7237 8.57389 17.6899 8.55451L14.0575 6.45636C13.967 6.40355 13.864 6.37568 13.7592 6.37568C13.6544 6.37568 13.5514 6.40355 13.4609 6.45636L9.02619 9.01701V7.24399C9.02568 7.23492 9.02742 7.22589 9.03125 7.21768C9.03508 7.20947 9.04087 7.20231 9.04812 7.19688L12.72 5.07859C13.2826 4.75422 13.9258 4.59676 14.5746 4.6246C15.2234 4.65246 15.8507 4.86448 16.3834 5.23586C16.9161 5.60724 17.332 6.12263 17.5824 6.72175C17.8329 7.32084 17.9076 7.97886 17.7977 8.61886ZM8.19149 11.779L6.6558 10.8925C6.64778 10.8885 6.6408 10.8826 6.6356 10.8752C6.6304 10.8679 6.62707 10.8594 6.62598 10.8504V6.60955C6.62639 5.96004 6.81183 5.32406 7.16054 4.77608C7.50929 4.22811 8.00691 3.7908 8.59515 3.51536C9.18339 3.23992 9.8379 3.13773 10.4821 3.22076C11.1263 3.3038 11.7336 3.56861 12.2327 3.98421C12.205 3.99932 12.1568 4.02593 12.1248 4.04535L8.49249 6.14348C8.40132 6.19529 8.32566 6.27045 8.27317 6.36122C8.22072 6.45198 8.1934 6.5551 8.19399 6.6599L8.19149 11.779ZM9.02546 9.98083L11.0006 8.84006L12.9757 9.9801V12.2609L11.0006 13.401L9.02546 12.2609V9.98083Z" fill="#64D2FF"/>
</g>
</svg>
