<svg width="95" height="62" viewBox="0 0 95 62" fill="none" xmlns="http://www.w3.org/2000/svg">
<g id="Frame 13244">
<path id="Subtract" fill-rule="evenodd" clip-rule="evenodd" d="M25.6774 12.5974L17.1306 26.9302C16.6573 27.7238 16.7569 28.7332 17.3761 29.419L47.2684 62.5283C48.1011 63.4507 49.5475 63.4547 50.3854 62.537L80.6127 29.4307C81.2425 28.741 81.3424 27.7187 80.8582 26.92L72.1671 12.5842C71.7855 11.9549 71.103 11.5705 70.367 11.5705H27.4854C26.744 11.5705 26.0572 11.9606 25.6774 12.5974ZM22.0614 10.4411L13.5145 24.7739C12.0949 27.1547 12.3936 30.1829 14.2511 32.2403L44.1434 65.3496C46.6417 68.1168 50.9808 68.1289 53.4945 65.3758L83.7218 32.2695C85.6112 30.2002 85.911 27.1335 84.4584 24.7374L75.7673 10.4016C74.6226 8.51352 72.575 7.36035 70.367 7.36035H27.4854C25.261 7.36035 23.2007 8.5306 22.0614 10.4411Z" fill="white"/>
<path id="v" d="M31.5957 20.834H39.8155L46.4314 34.1248L48.5699 39.454L50.7084 34.1248L57.2575 20.834H65.2768L49.1714 50.305H47.768L31.5957 20.834Z" fill="white"/>
</g>
</svg>
